@startuml
'https://plantuml.com/class-diagram
skinparam classAttributeIconSize 0

class Duke {

}

class MainController {

}
MainController <.. Duke
Controller <|-- MainController
DishController "1" <-- MainController: have <

abstract class Controller {

}


class Dish {
    -name: String
    -price: double
    +Dish(String, double)
    +getName(): String
    +setName(): void
    +getPrice(): double
    +setPrice(double): void
    +toString(): String
    -isValidName(String): boolean
    -toTitleCase(String): String
}

class DishManager {
    -dishes: ArrayList<Dish>
    +DishManager()
    +loadData(): void
    +saveData(): void
    +addDish(Dish): void
    +deleteDish(int): void
    +printDishes(): void
    +setName(int, String): void
    +setPrice(int, double): void
    +getNumOfDishes(): int
    -throwIfIndexNotValid(int): void
}
Controller <|-- DishController


class DishController {
    -CHOICES: String[]
    -dishManager: DishManager
    +DishController()
    -addDish(): void
    -changeName(): void
    -changePrice(): void
    -deleteDish(): void
    -listDishes(): void
    #optionSwicher(int): boolean
    +takeControl(): void
}


Dish "0..*" <-- DishManager: manages <

DishManager "1" <-- DishController: have <

DishController .-> Dish

class Staff {
    -staffId: int
    -staffName: String
    -position: String
    -salary: double
    +Staff(int, String, String, double)
    +isValidName(String): boolean
    +getStaffId(): int
    +setStaffId(int): void
    +getStaffName(): String
    +setStaffName(String): void
    +getPosition(): String
    +setPosition(String): void
    +getSalary(): double
    +setSalary(double): void
    +toString(): String
}

class StaffManager {
    -staffs: ArrayList<Staff>
    +StaffManager()
    +getStaffs(): ArrayList<Staff>
    +printStaffs(): void
    +printDishes(): void
    +addStaff(int, String, String, double): void
    +findStaffById(int, boolean): Staff
    +deleteStaffById(int): void
    +getNumOfStaff(): int
    +loadData(): void
    +saveData(): void
}

class StaffController {
    -CHOICES: String[]
    -staffManager: StaffManager
    +StaffController()
    #optionSwicher(int): boolean
    -findStaff(): void
    -addStaff(): void
    -deleteStaff(): void
    +takeControl(): void
}

Controller <|-- StaffController

StaffController "1" <-- MainController: have <

Staff "0..*" <-- StaffManager: manages <

StaffManager "1" <-- StaffController: have <

@enduml
