@startuml

package data {
    class ModuleList {
        --
        + addModule(m: Module): Module
        + removeModule(moduleCode: String): Module
        + getModule(moduleCode: String): Module
        + getGeneralTasks(): Module
        + initialiseGeneralTasksFromTaskList(list: ArrayList<Task>): void
        + isModuleExists(moduleCode: String): boolean
    }

    class Module {
        - moduleCode: String
        - moduleDescription: String
        - isGeneralTask: boolean
        - modularCredit: int
        --
        + addTask(task: Task): void
        + printModuleTaskList(): String
        + printModuleTaskListWithTag(): String
        + toString(): String
    }

    class TaskList {
        --
        + addTask(task: Task): Task
        + removeTask(index: int): Task
        + addTag(tagDescription: String, index: int): Task
        + deleteTag(tagDescription: String, index: int): Task
        + getAllTasks(indent: String): String
        + getTasksWithTag(indent: String, tag: String): String
        + size(): int
    }

    class Task {
        - taskName: String
        - taskDescription: String
        - isTaskDone: boolean
        - workingTime: String
        - tags: ArrayList<String>
        --
        + getTaskParameterStatus(): TaskParameters
        + toString(): String
    }

    enum TaskParameters {
        DESCRIPTION_AND_WORKING_TIME
        DESCRIPTION_ONLY
        WORKING_TIME_ONLY
        NO_DESCRIPTION_OR_WORKING_TIME
    }
}

note top of data
Note:
Some getters/setters have been
omitted from this class diagram.
end note

ModuleList --> "1..*" Module

Module -r> "1" TaskList
TaskList -r> "*" Task
Task --u> "1" TaskParameters

class Main
hide Main circle
hide Main attributes
hide Main methods

Main --> "1" ModuleList

class Command
hide Command circle
hide Command attributes
hide Command methods

Command ..> ModuleList

class Storage
hide Storage circle
hide Storage attributes
hide Storage methods

Storage ..> ModuleList

@enduml